 <svg version="1.0" xmlns="http://www.w3.org/2000/svg" width="700.000000pt" height="539.000000pt" viewBox="0 0 700.000000 539.000000" preserveAspectRatio="xMidYMid meet">
<metadata>
Created by potrace 1.12, written by Peter Selinger 2001-2015
</metadata>
<g transform="translate(0.000000,539.000000) scale(0.100000,-0.100000)" fill="#000000" stroke="none">
<path d="M3135 5169 c-166 -9 -326 -28 -340 -39 -5 -4 -41 -13 -80 -20 -81
-14 -227 -52 -303 -78 l-53 -19 163 -6 c90 -4 181 -10 203 -13 57 -8 571 -113
595 -121 14 -5 219 -60 390 -104 41 -10 90 -19 108 -19 17 0 32 -4 32 -10 0
-5 12 -12 28 -16 74 -17 297 -86 306 -94 11 -11 20 -143 12 -176 -8 -29 -7
-29 -106 1 -95 28 -357 99 -534 145 -43 11 -88 20 -101 20 -12 0 -25 3 -28 7
-19 18 -513 127 -697 154 -200 29 -305 33 -370 16 -30 -9 -58 -13 -63 -10 -4
3 -7 35 -6 73 2 57 -1 71 -20 91 -11 12 -21 17 -21 11 0 -7 -9 -12 -19 -12
-11 0 -22 -4 -25 -9 -3 -4 -26 -14 -51 -21 -25 -7 -45 -16 -45 -20 0 -4 -19
-15 -42 -24 -56 -23 -112 -49 -118 -56 -3 -3 -25 -15 -50 -28 -60 -31 -104
-56 -110 -62 -3 -3 -25 -16 -50 -29 -25 -13 -54 -31 -65 -40 -38 -31 -84 -61
-94 -61 -5 0 -11 -4 -13 -8 -1 -4 -32 -29 -68 -54 -36 -26 -80 -60 -98 -77
-17 -17 -36 -31 -42 -31 -5 0 -14 -9 -20 -20 -6 -11 -15 -20 -21 -20 -12 0
-298 -286 -344 -344 -16 -21 -38 -45 -47 -54 -9 -9 -39 -48 -68 -87 -28 -38
-58 -78 -66 -88 -8 -10 -20 -29 -26 -43 -6 -13 -15 -24 -19 -24 -4 0 -15 -17
-26 -37 -10 -21 -35 -63 -53 -93 -54 -86 -58 -92 -81 -140 -13 -25 -25 -47
-28 -50 -7 -5 -39 -71 -66 -135 -9 -22 -23 -53 -31 -69 -8 -16 -14 -35 -14
-43 0 -7 -4 -13 -10 -13 -5 0 -10 -8 -10 -17 0 -20 -24 -91 -45 -138 -8 -16
-23 -65 -34 -108 -11 -43 -23 -83 -27 -89 -9 -15 -34 -132 -40 -188 -3 -25
-10 -56 -17 -69 -9 -17 -12 -132 -12 -420 l0 -396 3249 -3 3248 -2 -4 405 c-3
299 -7 408 -16 417 -7 7 -12 30 -12 52 0 22 -4 53 -10 70 -5 17 -16 56 -24 86
-35 138 -58 218 -75 255 -10 22 -24 58 -30 80 -7 22 -17 51 -23 65 -6 14 -14
34 -19 45 -4 11 -26 60 -49 108 -22 49 -40 93 -40 97 0 5 -3 10 -7 12 -5 2
-24 35 -43 73 -19 39 -37 72 -40 75 -15 15 -69 101 -75 119 -3 11 -11 21 -16
21 -5 0 -9 4 -9 9 0 10 -87 134 -135 195 -14 17 -38 46 -53 65 -15 18 -38 47
-52 64 -34 40 -286 293 -336 336 -56 50 -135 113 -164 133 -65 45 -114 81
-127 94 -8 8 -18 14 -22 14 -5 0 -24 12 -43 28 -19 15 -52 36 -74 47 -21 11
-41 22 -44 25 -10 10 -44 28 -205 113 -61 32 -185 87 -224 99 -23 7 -41 16
-41 20 0 5 -6 8 -12 8 -11 0 -66 19 -143 51 -11 4 -36 11 -55 15 -19 3 -39 10
-45 14 -13 10 -75 28 -155 45 -36 8 -108 23 -160 35 -52 11 -133 26 -180 31
-108 14 -670 19 -855 8z m-297 -584 c173 -27 312 -52 442 -80 41 -9 86 -18
100 -21 64 -10 571 -132 733 -176 64 -17 78 -25 83 -44 7 -26 2 -170 -6 -177
-5 -5 -91 15 -295 67 -414 107 -652 158 -905 197 -334 50 -325 49 -482 49
-138 -1 -171 -5 -176 -20 -2 -5 -12 -10 -22 -10 -20 0 -36 33 -24 51 4 6 7 42
8 80 1 82 12 96 82 109 76 14 280 3 462 -25z m-178 -375 c246 -18 308 -25 510
-61 63 -11 165 -29 225 -39 152 -27 404 -77 502 -100 45 -11 128 -29 184 -40
57 -11 106 -25 109 -31 4 -6 8 -46 9 -89 2 -95 -9 -112 -66 -100 -250 55 -376
79 -385 74 -5 -4 -13 -3 -17 2 -7 11 -117 35 -341 75 -91 16 -202 35 -247 44
-45 8 -103 16 -130 19 -26 3 -104 12 -173 21 -261 32 -464 29 -508 -8 -27 -22
-42 20 -41 115 l1 87 36 12 c35 12 118 25 172 28 14 0 86 -3 160 -9z m230
-405 c74 -8 182 -22 240 -30 58 -8 127 -17 155 -20 64 -5 446 -68 645 -106 85
-16 171 -31 190 -34 69 -12 80 -27 80 -109 0 -90 -5 -106 -35 -106 -12 0 -91
13 -176 29 -205 39 -502 90 -564 97 -27 3 -140 19 -250 35 -392 58 -794 61
-845 7 -18 -19 -19 -19 -28 -1 -5 10 -10 59 -11 110 -2 104 -4 102 91 127 72
20 335 20 508 1z m-692 -107 c12 -12 16 -106 6 -145 -5 -20 -13 -23 -54 -23
-51 0 -214 -26 -378 -60 -126 -26 -309 -87 -333 -111 -11 -11 -27 -19 -37 -19
-10 0 -36 -15 -58 -33 -40 -34 -83 -61 -89 -55 -1 2 -5 43 -7 91 -4 82 -3 89
16 98 12 5 35 18 51 29 17 11 37 23 45 27 8 4 31 16 50 27 107 63 429 147 620
161 41 4 91 10 110 15 19 4 37 8 41 9 3 1 10 -4 17 -11z m768 -288 c55 -5 131
-12 169 -15 139 -10 193 -16 375 -41 102 -14 205 -28 230 -30 25 -2 133 -18
240 -35 141 -23 199 -36 208 -47 10 -13 13 -39 9 -100 -3 -46 -7 -86 -10 -88
-3 -3 -61 4 -129 15 -67 11 -148 23 -178 26 -30 3 -129 17 -219 31 -90 14
-214 29 -275 35 -61 5 -169 16 -241 24 -408 46 -633 45 -783 -2 -66 -21 -69
-18 -71 87 -2 69 1 81 20 99 12 11 47 25 78 32 31 6 61 13 66 14 25 8 423 4
511 -5z m1469 -14 c39 -3 102 -12 140 -20 97 -21 375 -94 402 -106 34 -14 210
-60 233 -60 11 0 20 -4 20 -8 0 -5 28 -17 63 -27 34 -10 161 -51 282 -91 l220
-74 3 -86 c2 -67 0 -85 -10 -82 -64 25 -632 206 -733 234 -71 19 -161 45 -200
56 -114 32 -124 35 -260 67 -71 17 -155 32 -185 32 -30 1 -72 6 -92 11 l-38 9
0 57 c0 92 6 103 49 97 20 -2 68 -7 106 -9z m-2227 -78 l3 -77 -48 -6 c-66 -9
-272 -42 -364 -59 -42 -7 -87 -21 -100 -30 -13 -9 -37 -16 -54 -16 -72 0 -285
-95 -303 -135 -5 -11 -26 -26 -47 -34 -46 -16 -58 -4 -50 49 2 19 5 49 5 65 0
34 47 92 95 117 70 36 100 53 103 61 2 4 11 7 20 7 10 0 40 9 69 20 46 17 199
56 323 82 78 16 233 34 290 34 l55 -1 3 -77z m-3 -241 c4 -13 5 -47 3 -77 -4
-63 6 -59 -173 -85 -239 -35 -472 -89 -499 -116 -6 -5 -17 -9 -26 -9 -23 0
-160 -68 -160 -79 0 -9 -84 -71 -96 -71 -2 0 -4 22 -4 49 0 28 -4 53 -10 56
-23 14 -2 85 26 85 4 0 25 15 48 34 98 80 264 140 531 192 152 30 230 41 302
43 47 1 53 -1 58 -22z m2355 -18 c217 -39 224 -40 481 -108 201 -53 317 -85
404 -111 39 -12 79 -24 90 -27 87 -22 251 -78 257 -87 4 -6 8 -41 8 -78 0 -54
-3 -68 -15 -68 -28 0 -124 25 -326 85 -47 14 -96 25 -110 25 -14 0 -30 5 -35
10 -16 16 -483 135 -492 125 -3 -2 -11 0 -18 6 -7 5 -34 14 -61 19 -26 4 -93
18 -148 30 -93 20 -260 32 -295 20 -12 -4 -16 9 -18 70 -3 67 -1 77 19 93 29
23 114 22 259 -4z m-1400 -40 c130 -9 337 -29 505 -48 44 -5 87 -9 95 -9 40 1
422 -51 429 -58 10 -10 12 -179 2 -194 -8 -12 -17 -12 -58 -2 -26 6 -79 14
-118 17 -38 2 -185 18 -325 34 -140 17 -291 32 -335 35 -269 18 -366 21 -600
21 -263 -1 -353 -10 -402 -41 -50 -32 -63 -13 -63 99 0 58 3 71 24 92 24 24
72 41 156 55 69 11 538 11 690 -1z m-952 -296 c3 -84 1 -87 -98 -97 -140 -15
-361 -58 -474 -92 -119 -35 -236 -86 -236 -103 0 -5 -15 -14 -32 -22 -46 -18
-98 -59 -98 -76 0 -8 -4 -11 -10 -8 -5 3 -10 15 -10 25 0 10 -6 21 -12 23 -10
4 -10 8 1 15 10 7 12 23 7 60 -6 49 -5 52 31 85 61 56 175 129 208 132 17 2
53 12 80 23 102 40 484 112 585 109 l55 -2 3 -72z m2362 16 c58 -6 134 -17
170 -24 280 -56 301 -61 800 -185 135 -34 248 -64 252 -68 6 -6 11 -94 9 -144
-1 -11 -9 -18 -20 -18 -15 0 -261 60 -411 100 -19 5 -73 18 -120 29 -47 11
-125 30 -175 42 -94 23 -251 54 -445 90 -88 16 -143 20 -232 17 l-118 -4 0 77
c0 87 3 91 70 99 50 6 68 5 220 -11z m-1260 -109 c113 -5 282 -16 375 -25 94
-8 229 -17 300 -20 170 -7 192 -12 199 -38 3 -12 6 -59 6 -105 l0 -83 -97 6
c-54 3 -165 12 -248 20 -491 47 -988 66 -1205 46 -123 -11 -245 -35 -266 -52
-6 -5 -26 -10 -45 -11 l-34 -3 -3 80 c-5 111 10 136 86 154 173 41 493 52 932
31z m-1102 -203 c2 -38 -2 -74 -8 -82 -5 -7 -41 -15 -78 -19 -96 -10 -346 -53
-417 -72 -33 -9 -73 -20 -90 -24 -93 -24 -255 -102 -313 -150 -20 -17 -40 -30
-44 -30 -5 0 -8 35 -8 78 0 77 0 78 38 114 39 37 182 121 223 131 13 3 56 15
94 27 128 41 458 99 545 97 l55 -2 3 -68z m2522 -24 c80 -14 183 -31 230 -38
98 -14 396 -74 550 -110 58 -13 145 -33 194 -44 48 -11 90 -21 92 -23 6 -6 7
-158 1 -164 -3 -3 -54 6 -114 20 -228 53 -770 164 -838 171 -16 2 -99 13 -183
25 -140 19 -285 23 -357 9 -18 -4 -20 2 -23 69 -3 82 4 97 52 112 46 14 232 2
396 -27z m-950 -163 c80 -5 200 -12 268 -14 68 -3 129 -9 136 -15 19 -16 21
-174 2 -190 -12 -10 -47 -11 -168 -2 -444 31 -866 42 -1133 30 -253 -11 -444
-38 -524 -74 -30 -14 -57 -23 -60 -19 -3 3 -8 50 -9 105 l-4 98 41 17 c23 9
41 19 41 23 0 9 226 41 360 52 124 10 863 2 1050 -11z m-1582 -42 c13 -13 16
-86 6 -137 -5 -25 -11 -31 -33 -31 -55 0 -361 -50 -461 -74 -116 -29 -259 -81
-275 -100 -5 -7 -22 -16 -37 -19 -15 -4 -40 -21 -55 -37 -15 -16 -43 -33 -60
-36 l-33 -6 0 75 0 75 58 53 c32 30 74 59 93 66 257 91 314 106 504 138 110
18 216 35 235 38 19 2 37 5 41 5 3 1 10 -3 17 -10z m2457 -98 c50 -6 106 -13
125 -15 19 -2 61 -7 92 -10 32 -3 124 -17 205 -31 82 -14 180 -30 218 -35 39
-5 124 -20 190 -33 66 -13 152 -30 190 -36 127 -22 120 -16 123 -103 l3 -77
-34 0 c-18 0 -58 4 -88 10 -30 5 -70 12 -89 15 -88 14 -111 18 -200 35 -52 10
-126 23 -165 29 -38 6 -126 20 -195 31 -192 31 -314 47 -398 51 -129 6 -265 4
-309 -4 l-43 -9 0 82 0 81 33 14 c39 17 211 19 342 5z m-2445 -276 l0 -64
-335 0 c-184 0 -335 4 -335 9 0 15 230 79 350 97 211 31 296 40 308 31 7 -6
12 -34 12 -73z m1985 14 c4 -20 4 -46 0 -58 -6 -20 -9 -20 -931 -20 -508 0
-924 3 -924 8 0 11 44 28 130 51 100 27 188 39 355 47 77 3 142 8 145 11 3 2
278 3 612 2 l607 -3 6 -38z m432 -55 c62 -3 110 -10 107 -15 -7 -11 -394 -10
-394 1 0 18 122 24 287 14z"></path>
<path d="M612 1464 c-191 -56 -287 -170 -286 -339 0 -132 98 -251 244 -298 64
-21 166 -37 237 -37 63 0 220 30 266 51 l27 12 0 147 c0 113 -3 150 -14 159
-9 8 -65 11 -177 9 l-164 -3 -3 -27 -3 -28 120 0 c141 0 134 8 129 -130 l-3
-85 -40 -13 c-62 -21 -167 -26 -236 -13 -167 33 -259 131 -259 275 0 192 184
311 429 277 47 -7 115 -24 150 -38 52 -21 65 -23 72 -12 27 43 -7 70 -126 100
-105 28 -257 25 -363 -7z"></path>
<path d="M1572 1300 c-13 -5 -43 -23 -67 -40 -24 -16 -46 -30 -49 -30 -2 0 -6
15 -8 33 -3 31 -5 32 -51 35 l-47 3 2 -248 3 -248 48 -3 47 -3 0 160 0 161 38
42 c53 59 109 82 183 73 l59 -7 0 30 c0 17 -5 34 -11 37 -18 12 -123 15 -147
5z"></path>
<path d="M2049 1301 c-70 -13 -145 -56 -179 -102 -78 -109 -56 -278 46 -348
83 -57 239 -76 381 -47 97 21 103 24 103 57 0 34 -3 34 -61 12 -31 -11 -78
-16 -159 -17 -109 -1 -118 1 -162 27 -55 32 -69 53 -71 110 l-2 42 240 5 c132
3 241 7 243 8 1 1 2 22 2 47 0 79 -44 142 -127 184 -48 24 -179 35 -254 22z
m163 -63 c39 -12 98 -67 98 -93 0 -7 3 -20 6 -29 5 -14 -14 -16 -178 -16 -102
0 -187 3 -191 6 -11 11 14 61 46 91 54 51 135 66 219 41z"></path>
<path d="M2825 1303 c-61 -8 -134 -45 -173 -87 -51 -55 -65 -100 -60 -190 2
-58 9 -81 29 -112 72 -108 238 -149 444 -109 86 16 107 28 103 59 -3 24 -5 24
-108 1 -96 -22 -212 -16 -266 12 -52 27 -86 77 -82 123 l3 35 231 3 c262 3
261 2 250 74 -22 146 -163 218 -371 191z m151 -64 c51 -13 90 -55 100 -107 l7
-32 -187 0 c-203 0 -202 0 -172 58 39 76 141 109 252 81z"></path>
<path d="M3654 1300 c-18 -4 -53 -19 -79 -34 -61 -33 -71 -33 -78 4 -6 28 -10
30 -51 30 -39 0 -45 -3 -48 -22 -2 -13 -1 -124 2 -248 l5 -225 45 0 45 0 5
171 5 171 30 26 c103 89 238 96 299 14 19 -26 21 -46 26 -205 l5 -177 50 0 50
0 -1 38 c-1 20 -2 110 -3 199 l-1 161 -44 43 c-33 31 -57 45 -96 53 -57 12
-119 13 -166 1z"></path>
<path d="M6745 600 c-3 -5 -1 -10 4 -10 6 0 11 5 11 10 0 6 -2 10 -4 10 -3 0
-8 -4 -11 -10z"></path>
<path d="M5198 343 c7 -3 16 -2 19 1 4 3 -2 6 -13 5 -11 0 -14 -3 -6 -6z"></path>
<path d="M5164 332 c-7 -4 -18 -23 -26 -42 -14 -32 -13 -38 1 -60 20 -32 42
-49 61 -49 8 0 5 4 -7 9 -52 21 -65 89 -26 133 17 18 16 22 -3 9z"></path>
<path d="M4838 313 c-9 -10 -18 -38 -20 -61 -3 -43 -2 -44 37 -58 53 -18 54
-18 14 9 -41 27 -51 77 -23 108 9 10 15 19 12 19 -3 0 -12 -8 -20 -17z"></path>
<path d="M4989 313 c24 -49 2 -122 -37 -124 -12 0 -13 -2 -4 -6 7 -3 24 5 38
18 28 27 33 84 8 115 -15 18 -15 18 -5 -3z"></path>
<path d="M5315 315 c23 -59 9 -106 -38 -125 -13 -5 -16 -9 -7 -9 22 -1 63 33
67 55 10 54 9 65 -10 81 -20 17 -20 17 -12 -2z"></path>
</g>
</svg>