<svg width="0" height="0" class="hidden">
  <symbol viewBox="0 0 25 21" xmlns="http://www.w3.org/2000/svg" id="comment">
    <path d="M20.55 7.509a8.032 8.032 0 0 0-.189-.759l-.014-.047a8.169 8.169 0 0 0-.255-.712l-.026-.06a8.281 8.281 0 0 0-.322-.68l-.026-.049a8.658 8.658 0 0 0-.395-.664l-.002-.003a9.472 9.472 0 0 0-2.18-2.31c-.034-.026-.064-.053-.098-.078-.156-.116-.32-.223-.485-.331-.09-.06-.18-.121-.272-.178a10.84 10.84 0 0 0-.45-.257c-.12-.065-.24-.13-.363-.192a11.122 11.122 0 0 0-.862-.383 11.35 11.35 0 0 0-.914-.315c-.137-.041-.275-.083-.415-.118a10.971 10.971 0 0 0-.55-.124c-.13-.027-.26-.056-.393-.079a11.832 11.832 0 0 0-.642-.085c-.112-.013-.222-.031-.335-.04A11.974 11.974 0 0 0 10.356 0C4.636 0 0 4.054 0 9.055c0 1.977.733 3.8 1.963 5.29L.2 18.415a52.006 52.006 0 0 0 4.887-1.575 11.43 11.43 0 0 0 5.269 1.27c5.72 0 10.356-4.055 10.356-9.055a7.98 7.98 0 0 0-.161-1.546z"></path>
    <path d="M25 13.77c0-2.232-1.2-4.215-3.061-5.496.021.259.044.517.044.78 0 5.18-4.325 9.47-9.934 10.202 1.362.942 3.08 1.508 4.951 1.508a8.832 8.832 0 0 0 4.07-.98c1.074.41 2.317.819 3.775 1.216l-1.362-3.143c.95-1.151 1.517-2.56 1.517-4.087z"></path>
  </symbol>
  <symbol viewBox="0 0 22 21" xmlns="http://www.w3.org/2000/svg" id="print">
    <path d="M17.025 3.514V.473A.473.473 0 0 0 16.552 0H4.73a.473.473 0 0 0-.473.473v3.04h.946V.947H16.08v2.568h.946zm2.007.946H2.25A2.25 2.25 0 0 0 0 6.71v6.613a2.25 2.25 0 0 0 2.25 2.25h1.176l.672-4.04a1.414 1.414 0 0 1 1.4-1.186h10.286c.697 0 1.107-.143 1.4 1.186l.673 4.04h1.175a2.25 2.25 0 0 0 2.25-2.25V6.71a2.25 2.25 0 0 0-2.25-2.25zm-.24 3.327a.836.836 0 1 1 0-1.673.836.836 0 0 1 0 1.673z"></path>
    <path d="M7.473 12.377h6.337a.22.22 0 0 1 .22.221v.505a.22.22 0 0 1-.22.22H7.473a.22.22 0 0 1-.221-.22v-.505a.22.22 0 0 1 .22-.22zm-.272 2.559h6.88a.22.22 0 0 1 .22.22v.505a.22.22 0 0 1-.22.22H7.2a.22.22 0 0 1-.22-.22v-.504a.221.221 0 0 1 .22-.221zm-.271 2.559h7.422a.22.22 0 0 1 .22.22v.505a.22.22 0 0 1-.22.221H6.93a.22.22 0 0 1-.221-.22v-.505a.22.22 0 0 1 .22-.22z"></path>
    <path d="M5.498 11.293a.473.473 0 0 0-.467.395L3.573 20.45a.473.473 0 0 0 .466.55h13.204a.473.473 0 0 0 .466-.55l-1.458-8.762a.473.473 0 0 0-.467-.395h-.558l1.459 8.761H4.598l1.458-8.761h-.558z" ></path>
  </symbol>
  <symbol xmlns="http://www.w3.org/2000/svg" id="user">
    <path fill-rule="evenodd" clip-rule="evenodd" d="M12.5 0C19.079 0 25 5.921 25 12.5S19.079 25 12.5 25 0 19.079 0 12.5 5.921 0 12.5 0zm0 6.579c1.974 0 3.947 1.974 3.947 3.947 0 2.632-1.973 4.606-3.947 4.606s-3.947-1.974-3.947-4.606c0-1.973 1.973-3.947 3.947-3.947zM3.947 19.737c4.606 5.263 12.5 5.263 17.106 0-4.606-5.263-12.5-5.263-17.106 0z"></path>
  </symbol>
</svg>
