<svg xmlns="http://www.w3.org/2000/svg" xmlns:xlink="http://www.w3.org/1999/xlink" viewBox="0 0 4119.94 4250.18"><defs><style>.cls-1{fill:url(#linear-gradient);}</style><linearGradient id="linear-gradient" y1="2125.09" x2="4119.94" y2="2125.09" gradientUnits="userSpaceOnUse"><stop offset="0" stop-color="#ed1c24"/><stop offset="1" stop-color="#f8961d"/></linearGradient></defs><title>logo-icon</title><g id="Layer_2" data-name="Layer 2"><g id="Layer_1-2" data-name="Layer 1"><path class="cls-1" d="M3638.17,1144.26h385.56V4249.9H3638.17V2778H2305.85l274.82-374.49h1057.5ZM4119.94,0,2439.45,2297.94l-1.22-.87L1004.92,4250.18H546.65l1341.4-1834.26h-1.18l442.75-605.42,1,.73,6-8.21s77.62-263.22,77.06-402C2409.86,844.8,1954.18,394.25,1399,394.25c-560,0-1013.47,457.55-1013.47,1004.16,0,583.85,423.35,1087.72,1323,1031.37L1432.8,2807.19c-7.77.55-18.73.88-32.11.88C564.3,2808.07,0,2119.08,0,1394.45H0C0,643.65,622.57,8.63,1398.43,8.63c695.39,0,1278.41,512.71,1383.37,1183.54L3567.36,118l5.09,3.6L3661.67,0ZM2644.09,2012l-9.86,13.43,2.55,1.8C2639.29,2022.22,2641.64,2017.1,2644.09,2012Z"/></g></g></svg>